<svg width="100" height="340" version="1.1" viewBox="0 0 26.458 89.958" xmlns="http://www.w3.org/2000/svg">
 <defs>
  <linearGradient id="linearGradient825" x2="52.917" y1="297" y2="164.71" gradientTransform="matrix(.5 0 0 .68 0 -112)" gradientUnits="userSpaceOnUse">
   <stop stop-color="#c460c8" offset="0"/>
   <stop stop-color="#ff88fb" offset="1"/>
  </linearGradient>
 </defs>
 <rect y="-6.7139e-6" width="26.458" height="89.958" ry="0" fill="url(#linearGradient825)" opacity=".88"/>
 <g opacity=".5" stroke-linecap="round" stroke-linejoin="round">
  <path transform="matrix(.26458 0 0 .26458 -.00011765 0)" d="m64.951 48.318c-8.4363 0-15.229 6.7903-15.229 15.227v40.607c0 8.4363 6.7922 15.229 15.229 15.229h35.049v-71.063h-35.049z" fill="#fff" stroke-width="2.1866"/>
  <path d="m9.1265 4.7259h10.744c2.2321 0 4.029 1.797 4.029 4.029v10.744c0 2.2321-1.797 4.029-4.029 4.029h-10.744c-2.2321 0-4.029-1.797-4.029-4.029v-10.744c0-2.2321 1.797-4.029 4.029-4.029z" stroke-width=".57853"/>
 </g>
</svg>
